<?xml version="1.0"?>
<svg xmlns="http://www.w3.org/2000/svg" viewBox="0 0 64 64" width="512" height="512"><g id="flat"><path d="M50,39A11,11,0,1,0,61,50,11,11,0,0,0,50,39Zm0,18a7,7,0,1,1,7-7A7,7,0,0,1,50,57Z" style="fill:#545454"/><path d="M16,39A11,11,0,1,0,27,50,11,11,0,0,0,16,39Zm0,18a7,7,0,1,1,7-7A7,7,0,0,1,16,57Z" style="fill:#545454"/><path d="M31,53a.976.976,0,0,1-.132-.009l-15-2a1,1,0,0,1-.75-1.462l8-15A1,1,0,0,1,24,34H43v2H24.6L17.561,49.2,30.6,50.938,43.244,36.345l1.512,1.31-13,15A1,1,0,0,1,31,53Z" style="fill:#d1d1cf"/><rect x="25.5" y="30.076" width="2" height="22.847" transform="translate(-14.205 13.794) rotate(-23.199)" style="fill:#d1d1cf"/><path d="M49.088,50.41l-9-20A1,1,0,0,1,41,29h9a4,4,0,0,1,0,8H47V35h3a2,2,0,0,0,0-4H42.546l8.366,18.59Z" style="fill:#d1d1cf"/><path d="M31,56a4,4,0,1,1,4-4A4,4,0,0,1,31,56Zm0-6a2,2,0,1,0,2,2A2,2,0,0,0,31,50Z" style="fill:#d1d1cf"/><rect x="39" y="3" width="8" height="11" rx="4" ry="4" style="fill:#fec9a3"/><polygon points="31 53 39 54 39 52 36 50 31.247 49.049 31 53" style="fill:#4398d1"/><path d="M32,37l-.753,12.049L36,50l1.691-13.526a3.778,3.778,0,0,0-1.845-3.73l-4.959-2.893L27.8,35.32Z" style="fill:#fec9a3"/><path d="M17,27.245a5.546,5.546,0,0,0,3.486,5.149L27.8,35.32l3.087-5.469L26,27V25H17Z" style="fill:#545454"/><path d="M43,17.815a4,4,0,0,0-1.366-3.01l-3.316-2.9a6,6,0,0,0-7.08-.6L20.828,17.66A8,8,0,0,0,17,24.487V25h9V23l11-4,1,1v4h5Z" style="fill:#4398d1"/><path d="M43,27V24H38v4.745a2.6,2.6,0,0,0,2.232,2.574L49,32.571,50,34h3V30Z" style="fill:#fec9a3"/><path d="M41,3h2a4,4,0,0,1,4,4V7a0,0,0,0,1,0,0H37a0,0,0,0,1,0,0V7A4,4,0,0,1,41,3Z" style="fill:#4398d1"/></g></svg>
