<svg id="offline" enable-background="new 0 0 300 300" height="512" viewBox="0 0 300 300" width="512" xmlns="http://www.w3.org/2000/svg"><path d="m182 142v48.54c0 12.957-10.503 23.46-23.46 23.46h-81.08c-12.956 0-23.46-10.503-23.46-23.46v-137.08c0-12.957 10.504-23.46 23.46-23.46h81.08c12.957 0 23.46 10.503 23.46 23.46v59.668" fill="#fff"/><path d="m119 222h-41.539c-17.352 0-31.461-14.109-31.461-31.461v-137.078c0-17.352 14.109-31.461 31.461-31.461h81.078c17.352 0 31.461 14.109 31.461 31.461v67.664h-16v-67.664c0-8.523-6.938-15.461-15.461-15.461h-81.078c-8.523 0-15.461 6.938-15.461 15.461v137.078c0 8.523 6.938 15.461 15.461 15.461h41.789z" fill="#5c128d"/><g fill="#d6d6d6"><path d="m78 62h56v16h-56z"/><path d="m78 94h80v16h-80z"/><path d="m78 126h56v16h-56z"/><path d="m78 158h24v16h-24z"/><circle cx="182" cy="206" r="64"/></g><path d="m182 278c-39.703 0-72-32.297-72-72s32.297-72 72-72 72 32.297 72 72-32.297 72-72 72zm0-128c-30.875 0-56 25.125-56 56s25.125 56 56 56 56-25.125 56-56-25.125-56-56-56z" fill="#5c128d"/><circle cx="166" cy="190" fill="#5c128d" r="8"/><circle cx="198" cy="190" fill="#5c128d" r="8"/><path d="m208.531 240.664c-.578 0-1.156-.062-1.742-.188-14.43-3.203-34.609-3.25-49.156-.094-4.312.945-8.578-1.812-9.516-6.125-.93-4.32 1.812-8.578 6.125-9.516 16.773-3.633 39.359-3.586 56.016.109 4.312.961 7.031 5.234 6.078 9.547-.828 3.728-4.141 6.267-7.805 6.267z" fill="#5c128d"/></svg>