<svg id="online" enable-background="new 0 0 300 300" height="512" viewBox="0 0 300 300" width="512" xmlns="http://www.w3.org/2000/svg"><path d="m182 142v48.54c0 12.957-10.503 23.46-23.46 23.46h-81.08c-12.956 0-23.46-10.503-23.46-23.46v-137.08c0-12.957 10.504-23.46 23.46-23.46h81.08c12.957 0 23.46 10.503 23.46 23.46v59.668" fill="#fff"/><path d="m158.539 222h-81.078c-17.352 0-31.461-14.109-31.461-31.461v-137.078c0-17.352 14.109-31.461 31.461-31.461h81.078c17.352 0 31.461 14.109 31.461 31.461v67.664h-16v-67.664c0-8.523-6.938-15.461-15.461-15.461h-81.078c-8.523 0-15.461 6.938-15.461 15.461v137.078c0 8.523 6.938 15.461 15.461 15.461h81.078c8.523 0 15.461-6.938 15.461-15.461v-56.539h16v56.539c0 17.352-14.109 31.461-31.461 31.461z" fill="#5c128d"/><circle cx="182" cy="206" fill="#f6d831" r="64"/><path d="m182 278c-39.703 0-72-32.297-72-72s32.297-72 72-72 72 32.297 72 72-32.297 72-72 72zm0-128c-30.875 0-56 25.125-56 56s25.125 56 56 56 56-25.125 56-56-25.125-56-56-56z" fill="#5c128d"/><circle cx="166" cy="190" fill="#5c128d" r="8"/><circle cx="198" cy="190" fill="#5c128d" r="8"/><g fill="#d6d6d6"><path d="m78 62h56v16h-56z"/><path d="m78 94h80v16h-80z"/><path d="m78 126h56v16h-56z"/><path d="m78 158h24v16h-24z"/></g><path d="m182 246c-17.648 0-32-14.352-32-32 0-4.422 3.578-8 8-8s8 3.578 8 8c0 8.82 7.18 16 16 16s16-7.18 16-16c0-4.422 3.578-8 8-8s8 3.578 8 8c0 17.648-14.352 32-32 32z" fill="#5c128d"/></svg>